<svg id="그룹_1746" data-name="그룹 1746" xmlns="http://www.w3.org/2000/svg" width="38" height="38" viewBox="0 0 38 38">
  <g id="타원" fill="none" opacity="0.2">
    <path d="M19,0A19,19,0,1,1,0,19,19,19,0,0,1,19,0Z" stroke="none"/>
    <path d="M 19 1 C 14.19202995300293 1 9.671829223632812 2.872329711914062 6.272079467773438 6.272079467773438 C 2.872329711914062 9.671829223632812 1 14.19202995300293 1 19 C 1 23.80797004699707 2.872329711914062 28.32817077636719 6.272079467773438 31.72792053222656 C 9.671829223632812 35.12767028808594 14.19202995300293 37 19 37 C 23.80797004699707 37 28.32817077636719 35.12767028808594 31.72792053222656 31.72792053222656 C 35.12767028808594 28.32817077636719 37 23.80797004699707 37 19 C 37 14.19202995300293 35.12767028808594 9.671829223632812 31.72792053222656 6.272079467773438 C 28.32817077636719 2.872329711914062 23.80797004699707 1 19 1 M 19 0 C 29.49341011047363 0 38 8.506589889526367 38 19 C 38 29.49341011047363 29.49341011047363 38 19 38 C 8.506589889526367 38 0 29.49341011047363 0 19 C 0 8.506589889526367 8.506589889526367 0 19 0 Z" stroke="none" fill="#fff"/>
  </g>
  <path id="icn" d="M0,0,6,6l6-6" transform="translate(16.917 24.583) rotate(-90)" fill="none" stroke="#fff" stroke-miterlimit="10" stroke-width="1.5"/>
</svg>
