<svg xmlns="http://www.w3.org/2000/svg" width="20" height="20" viewBox="0 0 20 20">
  <g id="btn_reset" transform="translate(-0.999 -0.962)">
    <rect id="con" width="20" height="20" transform="translate(0.999 0.962)" fill="none"/>
    <g id="그룹_45" data-name="그룹 45" transform="translate(-327.143 -500.945)">
      <path id="패스_93" data-name="패스 93" d="M345.767,507.216h-3.874v-1.5h3.5l-.7-3.515,1.471-.294.777,3.885a1.191,1.191,0,0,1-1.168,1.425Z" transform="translate(-1.916)" fill="#fff"/>
      <path id="패스_94" data-name="패스 94" d="M338.4,522.025a9.36,9.36,0,0,1,0-18.72,9.189,9.189,0,0,1,6.1,2.316l-.994,1.123a7.69,7.69,0,0,0-5.1-1.939,7.826,7.826,0,1,0,6.959,4.383l1.349-.657a9.382,9.382,0,0,1-8.307,13.494Z" transform="translate(0 -0.235)" fill="#fff"/>
    </g>
  </g>
</svg>
