<svg width="649" height="328" viewBox="0 0 649 328" fill="none" xmlns="http://www.w3.org/2000/svg">
<rect x="0.75293" width="647.417" height="327.138" fill="#FF0000"/>
<rect x="261.006" y="140.631" width="38.159" height="29.5839" fill="#FFB800"/>
<path d="M269.699 165.92V154.498H272.215L274.16 159.854C274.423 160.564 274.623 161.305 274.87 162.045H274.932C275.194 161.305 275.395 160.564 275.626 159.854L277.525 154.498H280.056V165.92H277.973V161.15C277.973 160.07 278.158 158.48 278.281 157.399H278.204L277.263 160.085L275.503 164.901H274.191L272.431 160.085L271.505 157.399H271.444C271.567 158.48 271.737 160.07 271.737 161.15V165.92H269.699ZM287.504 166.136C284.618 166.136 282.287 164.067 282.287 160.255C282.287 156.489 284.695 154.297 287.597 154.297C289.048 154.297 290.206 154.976 290.946 155.748L289.742 157.214C289.156 156.643 288.508 156.257 287.628 156.257C285.915 156.257 284.618 157.739 284.618 160.178C284.618 162.678 285.776 164.16 287.597 164.16C288.569 164.16 289.341 163.697 289.943 163.033L291.147 164.469C290.206 165.565 288.986 166.136 287.504 166.136Z" fill="black"/>
<path d="M302.284 165.92V154.498H305.418C308.906 154.498 311.052 156.304 311.052 160.162C311.052 164.006 308.906 165.92 305.541 165.92H302.284ZM304.569 164.083H305.263C307.409 164.083 308.721 162.941 308.721 160.162C308.721 157.384 307.409 156.319 305.263 156.319H304.569V164.083ZM316.73 166.136C314.553 166.136 312.578 164.469 312.578 161.613C312.578 158.742 314.553 157.075 316.73 157.075C318.891 157.075 320.866 158.742 320.866 161.613C320.866 164.469 318.891 166.136 316.73 166.136ZM316.73 164.299C317.903 164.299 318.551 163.234 318.551 161.613C318.551 159.977 317.903 158.928 316.73 158.928C315.541 158.928 314.893 159.977 314.893 161.613C314.893 163.234 315.541 164.299 316.73 164.299ZM322.78 165.92V157.291H324.617L324.802 158.434H324.848C325.589 157.693 326.484 157.075 327.657 157.075C329.51 157.075 330.328 158.372 330.328 160.533V165.92H328.059V160.826C328.059 159.468 327.673 159.02 326.839 159.02C326.129 159.02 325.682 159.36 325.049 159.977V165.92H322.78ZM334.783 166.136C333.239 166.136 332.236 165.055 332.236 163.574C332.236 161.737 333.733 160.764 337.206 160.378C337.16 159.53 336.805 158.897 335.74 158.897C334.937 158.897 334.15 159.236 333.363 159.715L332.544 158.202C333.563 157.585 334.783 157.075 336.156 157.075C338.348 157.075 339.475 158.372 339.475 160.888V165.92H337.623L337.453 165.009H337.391C336.635 165.657 335.77 166.136 334.783 166.136ZM335.523 164.361C336.172 164.361 336.65 164.067 337.206 163.527V161.783C335.091 162.045 334.397 162.617 334.397 163.404C334.397 164.067 334.86 164.361 335.523 164.361ZM343.917 166.136C342.328 166.136 341.787 165.102 341.787 163.496V153.618H344.056V163.589C344.056 164.129 344.288 164.299 344.504 164.299C344.581 164.299 344.643 164.299 344.797 164.268L345.075 165.951C344.813 166.043 344.458 166.136 343.917 166.136ZM349.697 166.136C347.536 166.136 346.147 164.453 346.147 161.613C346.147 158.789 347.922 157.075 349.774 157.075C350.746 157.075 351.348 157.43 351.981 158.001L351.889 156.643V153.618H354.157V165.92H352.305L352.135 165.024H352.089C351.456 165.657 350.592 166.136 349.697 166.136ZM350.268 164.268C350.885 164.268 351.395 164.021 351.889 163.388V159.591C351.379 159.113 350.824 158.928 350.283 158.928C349.311 158.928 348.477 159.854 348.477 161.582C348.477 163.388 349.141 164.268 350.268 164.268ZM357.083 159.391L356.558 158.387C357.577 157.847 358.071 157.199 358.071 156.149L357.963 154.745L358.781 155.841C358.534 156.057 358.241 156.196 357.917 156.196C357.238 156.196 356.682 155.748 356.682 155.007C356.682 154.22 357.191 153.726 357.917 153.726C358.889 153.726 359.414 154.498 359.414 155.81C359.414 157.384 358.642 158.588 357.083 159.391ZM363.264 166.136C362.107 166.136 360.826 165.642 359.977 164.932L360.995 163.496C361.783 164.098 362.508 164.453 363.311 164.453C364.175 164.453 364.576 164.067 364.576 163.527C364.576 162.894 363.666 162.586 362.771 162.246C361.675 161.814 360.455 161.166 360.455 159.699C360.455 158.171 361.69 157.075 363.666 157.075C364.916 157.075 365.904 157.585 366.614 158.14L365.58 159.499C364.978 159.066 364.36 158.758 363.727 158.758C362.94 158.758 362.585 159.097 362.585 159.607C362.585 160.224 363.372 160.471 364.299 160.795C365.441 161.227 366.691 161.814 366.691 163.404C366.691 164.932 365.503 166.136 363.264 166.136Z" fill="black"/>
</svg>
