<svg width="112" height="112" viewBox="0 0 112 112" fill="none" xmlns="http://www.w3.org/2000/svg">
<g clip-path="url(#clip0_66_20)">
<path d="M47.2351 45.7656V45.0945L50.4865 40.9183V40.8587H47.3395V40.0384H51.62V40.7393L48.4581 44.8857V44.9453H51.7244V45.7656H47.2351ZM53.0798 40.0384H53.9598V46.1832C53.9598 46.5362 53.8989 46.842 53.7771 47.1005C53.6578 47.359 53.4763 47.5591 53.2327 47.7008C52.9916 47.8425 52.6871 47.9134 52.3192 47.9134C52.2893 47.9134 52.2595 47.9134 52.2297 47.9134C52.1998 47.9134 52.17 47.9134 52.1402 47.9134V47.093C52.17 47.093 52.1974 47.093 52.2222 47.093C52.2471 47.093 52.2744 47.093 52.3042 47.093C52.5727 47.093 52.7691 47.0135 52.8934 46.8544C53.0177 46.6978 53.0798 46.4741 53.0798 46.1832V40.0384ZM53.5123 39.0838C53.3408 39.0838 53.1929 39.0254 53.0686 38.9086C52.9468 38.7917 52.8859 38.6513 52.8859 38.4872C52.8859 38.3232 52.9468 38.1827 53.0686 38.0659C53.1929 37.949 53.3408 37.8906 53.5123 37.8906C53.6839 37.8906 53.8305 37.949 53.9523 38.0659C54.0766 38.1827 54.1388 38.3232 54.1388 38.4872C54.1388 38.6513 54.0766 38.7917 53.9523 38.9086C53.8305 39.0254 53.6839 39.0838 53.5123 39.0838ZM57.8982 45.8849C57.3613 45.8849 56.8989 45.7582 56.5111 45.5046C56.1234 45.2511 55.8251 44.9018 55.6163 44.4569C55.4074 44.0119 55.303 43.5036 55.303 42.9318C55.303 42.3501 55.4099 41.8368 55.6237 41.3919C55.84 40.9444 56.1408 40.5952 56.5261 40.3441C56.9138 40.0906 57.3663 39.9638 57.8833 39.9638C58.286 39.9638 58.6489 40.0384 58.9721 40.1875C59.2952 40.3366 59.56 40.5455 59.7663 40.8139C59.9726 41.0824 60.1006 41.3956 60.1503 41.7536H59.2704C59.2033 41.4925 59.0541 41.2614 58.8229 41.06C58.5942 40.8562 58.286 40.7543 57.8982 40.7543C57.5552 40.7543 57.2544 40.8437 56.9959 41.0227C56.7398 41.1992 56.5397 41.449 56.3956 41.7722C56.2539 42.0929 56.183 42.4695 56.183 42.902C56.183 43.3445 56.2526 43.7298 56.3918 44.0579C56.5335 44.386 56.7324 44.6408 56.9884 44.8223C57.2469 45.0037 57.5502 45.0945 57.8982 45.0945C58.1269 45.0945 58.3345 45.0547 58.5209 44.9751C58.7073 44.8956 58.8652 44.7812 58.9945 44.6321C59.1237 44.483 59.2157 44.304 59.2704 44.0952H60.1503C60.1006 44.4332 59.9776 44.7377 59.7812 45.0087C59.5873 45.2772 59.33 45.4909 59.0094 45.65C58.6912 45.8066 58.3208 45.8849 57.8982 45.8849ZM62.3167 38.1293V45.7656H61.4367V38.1293H62.3167ZM41.478 58.7656V58.0945L43.9986 55.3352C44.2944 55.0121 44.538 54.7312 44.7294 54.4925C44.9208 54.2514 45.0625 54.0252 45.1545 53.8139C45.2489 53.6001 45.2962 53.3764 45.2962 53.1428C45.2962 52.8743 45.2315 52.6419 45.1023 52.4455C44.9755 52.2491 44.8015 52.0975 44.5803 51.9906C44.359 51.8837 44.1104 51.8303 43.8345 51.8303C43.5412 51.8303 43.2852 51.8912 43.0664 52.013C42.8501 52.1323 42.6824 52.3001 42.563 52.5163C42.4462 52.7326 42.3878 52.9862 42.3878 53.277H41.5078C41.5078 52.8295 41.611 52.4368 41.8173 52.0987C42.0236 51.7607 42.3045 51.4972 42.66 51.3082C43.0179 51.1193 43.4194 51.0249 43.8643 51.0249C44.3118 51.0249 44.7083 51.1193 45.0538 51.3082C45.3993 51.4972 45.6703 51.752 45.8667 52.0726C46.063 52.3933 46.1612 52.75 46.1612 53.1428C46.1612 53.4237 46.1103 53.6983 46.0083 53.9668C45.9089 54.2328 45.7349 54.5298 45.4863 54.858C45.2402 55.1836 44.8984 55.5813 44.4609 56.0511L42.7457 57.8857V57.9453H46.2955V58.7656H41.478ZM50.3262 58.87C49.7644 58.87 49.2859 58.7172 48.8906 58.4114C48.4954 58.1032 48.1934 57.657 47.9846 57.0728C47.7757 56.4862 47.6713 55.7777 47.6713 54.9474C47.6713 54.1222 47.7757 53.4174 47.9846 52.8333C48.1958 52.2466 48.4991 51.7992 48.8944 51.4909C49.2921 51.1802 49.7694 51.0249 50.3262 51.0249C50.883 51.0249 51.359 51.1802 51.7543 51.4909C52.152 51.7992 52.4553 52.2466 52.6641 52.8333C52.8754 53.4174 52.981 54.1222 52.981 54.9474C52.981 55.7777 52.8766 56.4862 52.6678 57.0728C52.459 57.657 52.157 58.1032 51.7617 58.4114C51.3665 58.7172 50.888 58.87 50.3262 58.87ZM50.3262 58.0497C50.883 58.0497 51.3155 57.7812 51.6238 57.2443C51.932 56.7074 52.0861 55.9418 52.0861 54.9474C52.0861 54.2862 52.0153 53.7232 51.8736 53.2583C51.7344 52.7935 51.533 52.4393 51.2695 52.1957C51.0085 51.9521 50.6941 51.8303 50.3262 51.8303C49.7743 51.8303 49.343 52.1025 49.0323 52.6468C48.7216 53.1887 48.5662 53.9556 48.5662 54.9474C48.5662 55.6087 48.6358 56.1705 48.775 56.6328C48.9142 57.0952 49.1143 57.4469 49.3754 57.688C49.6388 57.9292 49.9558 58.0497 50.3262 58.0497ZM54.3979 58.7656V58.0945L56.9185 55.3352C57.2143 55.0121 57.4579 54.7312 57.6493 54.4925C57.8407 54.2514 57.9824 54.0252 58.0744 53.8139C58.1689 53.6001 58.2161 53.3764 58.2161 53.1428C58.2161 52.8743 58.1515 52.6419 58.0222 52.4455C57.8954 52.2491 57.7214 52.0975 57.5002 51.9906C57.2789 51.8837 57.0304 51.8303 56.7544 51.8303C56.4611 51.8303 56.2051 51.8912 55.9863 52.013C55.7701 52.1323 55.6023 52.3001 55.483 52.5163C55.3661 52.7326 55.3077 52.9862 55.3077 53.277H54.4277C54.4277 52.8295 54.5309 52.4368 54.7372 52.0987C54.9435 51.7607 55.2244 51.4972 55.5799 51.3082C55.9379 51.1193 56.3393 51.0249 56.7843 51.0249C57.2317 51.0249 57.6282 51.1193 57.9737 51.3082C58.3192 51.4972 58.5902 51.752 58.7866 52.0726C58.983 52.3933 59.0811 52.75 59.0811 53.1428C59.0811 53.4237 59.0302 53.6983 58.9283 53.9668C58.8288 54.2328 58.6548 54.5298 58.4062 54.858C58.1602 55.1836 57.8184 55.5813 57.3809 56.0511L55.6657 57.8857V57.9453H59.2154V58.7656H54.3979ZM60.4123 57.1996V56.4389L63.7681 51.1293H64.32V52.3075H63.9471L61.4116 56.3196V56.3793H65.9308V57.1996H60.4123ZM64.0067 58.7656V56.9684V56.6142V51.1293H64.8867V58.7656H64.0067Z" fill="black"/>
</g>
<defs>
<clipPath id="clip0_66_20">
<rect width="112" height="112" fill="white"/>
</clipPath>
</defs>
</svg>
