<svg width="88" height="26" viewBox="0 0 88 26" fill="none" xmlns="http://www.w3.org/2000/svg">
<rect width="88" height="26" fill="white"/>
<rect width="88" height="26" rx="2" fill="#4D4D4D"/>
<path d="M26.62 5.61H27.865V19.17H26.62V5.61ZM22.645 7.065H23.875C23.875 10.995 22.105 14.43 17.575 16.65L16.915 15.645C20.83 13.755 22.645 10.875 22.645 7.275V7.065ZM17.53 7.065H23.185V8.085H17.53V7.065ZM31.1188 14.88H32.1838C34.6888 14.88 36.4138 14.82 38.4538 14.46L38.5888 15.48C36.4888 15.84 34.7188 15.915 32.1838 15.915H31.1188V14.88ZM31.1188 6.84H37.4338V7.875H32.3638V15.24H31.1188V6.84ZM32.0488 10.635H37.1338V11.64H32.0488V10.635ZM39.7138 5.61H40.9738V19.17H39.7138V5.61ZM40.6738 11.055H43.1938V12.105H40.6738V11.055ZM54.2777 5.595H55.5077V19.185H54.2777V5.595ZM50.6927 10.635H54.6377V11.655H50.6927V10.635ZM44.8877 6.675H46.1177V10.2H49.8827V6.675H51.1127V15.78H44.8877V6.675ZM46.1177 11.19V14.745H49.8827V11.19H46.1177ZM58.1315 13.11H70.3865V14.13H58.1315V13.11ZM59.7065 17.85H69.1115V18.87H59.7065V17.85ZM59.7065 15.12H60.9515V18.24H59.7065V15.12ZM59.7515 10.89H68.9465V11.865H59.7515V10.89ZM59.7515 6.105H68.8865V7.095H60.9815V11.265H59.7515V6.105ZM60.6215 8.49H68.5265V9.435H60.6215V8.49Z" fill="white"/>
</svg>
