<svg width="100" height="100" viewBox="0 0 100 100" fill="none" xmlns="http://www.w3.org/2000/svg">
<g clip-path="url(#clip0_66_20)">
<path d="M38.6583 40V39.215L42.4613 34.3304V34.2606H38.7805V33.3011H43.7872V34.121L40.0888 38.9707V39.0405H43.9093V40H38.6583ZM45.4946 33.3011H46.5238V40.4885C46.5238 40.9013 46.4526 41.2589 46.3101 41.5613C46.1706 41.8637 45.9583 42.0978 45.6734 42.2635C45.3914 42.4292 45.0352 42.5121 44.6049 42.5121C44.57 42.5121 44.5351 42.5121 44.5002 42.5121C44.4653 42.5121 44.4304 42.5121 44.3955 42.5121V41.5526C44.4304 41.5526 44.4624 41.5526 44.4915 41.5526C44.5206 41.5526 44.5526 41.5526 44.5874 41.5526C44.9014 41.5526 45.1311 41.4596 45.2765 41.2735C45.4219 41.0903 45.4946 40.8286 45.4946 40.4885V33.3011ZM46.0005 32.1847C45.7999 32.1847 45.6269 32.1163 45.4815 31.9797C45.339 31.843 45.2678 31.6788 45.2678 31.4869C45.2678 31.295 45.339 31.1307 45.4815 30.994C45.6269 30.8574 45.7999 30.7891 46.0005 30.7891C46.2011 30.7891 46.3726 30.8574 46.5151 30.994C46.6605 31.1307 46.7332 31.295 46.7332 31.4869C46.7332 31.6788 46.6605 31.843 46.5151 31.9797C46.3726 32.1163 46.2011 32.1847 46.0005 32.1847ZM51.1304 40.1396C50.5024 40.1396 49.9616 39.9913 49.508 39.6947C49.0544 39.3981 48.7055 38.9896 48.4613 38.4692C48.2171 37.9488 48.095 37.3542 48.095 36.6855C48.095 36.0051 48.22 35.4047 48.47 34.8843C48.723 34.3609 49.0748 33.9524 49.5255 33.6588C49.979 33.3622 50.5082 33.2139 51.1129 33.2139C51.584 33.2139 52.0085 33.3011 52.3864 33.4756C52.7644 33.65 53.074 33.8943 53.3154 34.2083C53.5567 34.5223 53.7064 34.8886 53.7646 35.3073H52.7353C52.6568 35.002 52.4824 34.7316 52.212 34.4961C51.9445 34.2577 51.584 34.1385 51.1304 34.1385C50.7292 34.1385 50.3773 34.2432 50.075 34.4525C49.7755 34.6589 49.5414 34.9511 49.3728 35.3291C49.2071 35.7042 49.1242 36.1447 49.1242 36.6506C49.1242 37.1681 49.2056 37.6188 49.3684 38.0026C49.5342 38.3863 49.7668 38.6844 50.0662 38.8966C50.3686 39.1089 50.7233 39.215 51.1304 39.215C51.3979 39.215 51.6407 39.1685 51.8587 39.0754C52.0768 38.9824 52.2614 38.8486 52.4126 38.6742C52.5638 38.4997 52.6714 38.2904 52.7353 38.0462H53.7646C53.7064 38.4416 53.5625 38.7978 53.3328 39.1147C53.106 39.4287 52.8051 39.6787 52.43 39.8648C52.0579 40.048 51.6247 40.1396 51.1304 40.1396ZM56.2985 31.0682V40H55.2692V31.0682H56.2985ZM31.9246 55V54.215L34.8728 50.9877C35.2188 50.6097 35.5037 50.2811 35.7276 50.002C35.9515 49.72 36.1172 49.4554 36.2248 49.2083C36.3352 48.9582 36.3905 48.6966 36.3905 48.4233C36.3905 48.1092 36.3149 47.8374 36.1637 47.6077C36.0154 47.378 35.8119 47.2007 35.5531 47.0756C35.2944 46.9506 35.0036 46.8881 34.6809 46.8881C34.3378 46.8881 34.0383 46.9593 33.7825 47.1018C33.5295 47.2414 33.3333 47.4376 33.1937 47.6906C33.0571 47.9435 32.9887 48.2401 32.9887 48.5803H31.9595C31.9595 48.0569 32.0801 47.5975 32.3215 47.2021C32.5628 46.8067 32.8913 46.4985 33.3071 46.2775C33.7258 46.0566 34.1953 45.9461 34.7158 45.9461C35.2391 45.9461 35.7029 46.0566 36.107 46.2775C36.5112 46.4985 36.8281 46.7965 37.0578 47.1716C37.2875 47.5466 37.4023 47.9639 37.4023 48.4233C37.4023 48.7518 37.3427 49.0731 37.2235 49.3871C37.1072 49.6982 36.9037 50.0456 36.6129 50.4294C36.3251 50.8103 35.9253 51.2755 35.4136 51.825L33.4074 53.9707V54.0405H37.5593V55H31.9246ZM42.2738 55.1221C41.6167 55.1221 41.057 54.9433 40.5947 54.5857C40.1324 54.2252 39.7792 53.7033 39.5349 53.02C39.2907 52.3338 39.1686 51.5052 39.1686 50.5341C39.1686 49.5688 39.2907 48.7445 39.5349 48.0613C39.7821 47.3751 40.1368 46.8518 40.5991 46.4912C41.0643 46.1278 41.6225 45.9461 42.2738 45.9461C42.9251 45.9461 43.4819 46.1278 43.9442 46.4912C44.4094 46.8518 44.7641 47.3751 45.0083 48.0613C45.2554 48.7445 45.379 49.5688 45.379 50.5341C45.379 51.5052 45.2569 52.3338 45.0127 53.02C44.7684 53.7033 44.4152 54.2252 43.9529 54.5857C43.4906 54.9433 42.9309 55.1221 42.2738 55.1221ZM42.2738 54.1626C42.9251 54.1626 43.431 53.8486 43.7915 53.2206C44.152 52.5926 44.3323 51.6971 44.3323 50.5341C44.3323 49.7607 44.2494 49.1022 44.0837 48.5584C43.9209 48.0147 43.6854 47.6004 43.3772 47.3155C43.0719 47.0306 42.7041 46.8881 42.2738 46.8881C41.6283 46.8881 41.1239 47.2065 40.7605 47.8432C40.397 48.477 40.2153 49.374 40.2153 50.5341C40.2153 51.3075 40.2967 51.9646 40.4595 52.5054C40.6223 53.0462 40.8564 53.4576 41.1617 53.7396C41.4699 54.0216 41.8406 54.1626 42.2738 54.1626ZM47.0363 55V54.215L49.9845 50.9877C50.3305 50.6097 50.6154 50.2811 50.8393 50.002C51.0632 49.72 51.2289 49.4554 51.3365 49.2083C51.4469 48.9582 51.5022 48.6966 51.5022 48.4233C51.5022 48.1092 51.4266 47.8374 51.2754 47.6077C51.1271 47.378 50.9236 47.2007 50.6648 47.0756C50.4061 46.9506 50.1153 46.8881 49.7926 46.8881C49.4495 46.8881 49.15 46.9593 48.8942 47.1018C48.6412 47.2414 48.445 47.4376 48.3054 47.6906C48.1687 47.9435 48.1004 48.2401 48.1004 48.5803H47.0712C47.0712 48.0569 47.1918 47.5975 47.4331 47.2021C47.6745 46.8067 48.003 46.4985 48.4188 46.2775C48.8375 46.0566 49.307 45.9461 49.8275 45.9461C50.3508 45.9461 50.8146 46.0566 51.2187 46.2775C51.6228 46.4985 51.9398 46.7965 52.1695 47.1716C52.3991 47.5466 52.514 47.9639 52.514 48.4233C52.514 48.7518 52.4544 49.0731 52.3352 49.3871C52.2189 49.6982 52.0154 50.0456 51.7246 50.4294C51.4368 50.8103 51.037 51.2755 50.5253 51.825L48.5191 53.9707V54.0405H52.671V55H47.0363ZM54.071 53.1683V52.2786L57.9961 46.0682H58.6415V47.4463H58.2054L55.2398 52.139V52.2088H60.5256V53.1683H54.071ZM58.2752 55V52.8979V52.4836V46.0682H59.3044V55H58.2752Z" fill="black"/>
</g>
<defs>
<clipPath id="clip0_66_20">
<rect width="100" height="100" fill="white"/>
</clipPath>
</defs>
</svg>
