<svg width="30" height="26" viewBox="0 0 30 26" fill="none" xmlns="http://www.w3.org/2000/svg">
<path d="M7.65834 10V9.21498L11.4613 4.33039V4.26061H7.78045V3.30114H12.7872V4.12105L9.08882 8.97075V9.04053H12.9093V10H7.65834ZM14.4946 3.30114H15.5238V10.4885C15.5238 10.9013 15.4526 11.2589 15.3101 11.5613C15.1706 11.8637 14.9583 12.0978 14.6734 12.2635C14.3914 12.4292 14.0352 12.5121 13.6049 12.5121C13.57 12.5121 13.5351 12.5121 13.5002 12.5121C13.4653 12.5121 13.4304 12.5121 13.3955 12.5121V11.5526C13.4304 11.5526 13.4624 11.5526 13.4915 11.5526C13.5206 11.5526 13.5526 11.5526 13.5874 11.5526C13.9014 11.5526 14.1311 11.4596 14.2765 11.2735C14.4219 11.0903 14.4946 10.8286 14.4946 10.4885V3.30114ZM15.0005 2.18466C14.7999 2.18466 14.6269 2.11633 14.4815 1.97968C14.339 1.84303 14.2678 1.67876 14.2678 1.48686C14.2678 1.29497 14.339 1.13069 14.4815 0.994041C14.6269 0.857389 14.7999 0.789063 15.0005 0.789063C15.2011 0.789063 15.3726 0.857389 15.5151 0.994041C15.6605 1.13069 15.7332 1.29497 15.7332 1.48686C15.7332 1.67876 15.6605 1.84303 15.5151 1.97968C15.3726 2.11633 15.2011 2.18466 15.0005 2.18466ZM20.1304 10.1396C19.5024 10.1396 18.9616 9.99128 18.508 9.69471C18.0544 9.39815 17.7055 8.98965 17.4613 8.46921C17.2171 7.94876 17.095 7.35418 17.095 6.68546C17.095 6.0051 17.22 5.40471 17.47 4.88427C17.723 4.36092 18.0748 3.95242 18.5255 3.65876C18.979 3.36219 19.5082 3.21391 20.1129 3.21391C20.584 3.21391 21.0085 3.30114 21.3864 3.47559C21.7644 3.65004 22.074 3.89427 22.3154 4.20827C22.5567 4.52228 22.7064 4.88863 22.7646 5.30731H21.7353C21.6568 5.00202 21.4824 4.73162 21.212 4.49612C20.9445 4.2577 20.584 4.13849 20.1304 4.13849C19.7292 4.13849 19.3773 4.24316 19.075 4.4525C18.7755 4.65894 18.5414 4.95114 18.3728 5.32911C18.2071 5.70418 18.1242 6.14466 18.1242 6.65057C18.1242 7.1681 18.2056 7.61876 18.3684 8.00255C18.5342 8.38634 18.7668 8.68436 19.0662 8.89661C19.3686 9.10885 19.7233 9.21498 20.1304 9.21498C20.3979 9.21498 20.6407 9.16846 20.8587 9.07542C21.0768 8.98238 21.2614 8.84863 21.4126 8.67418C21.5638 8.49973 21.6714 8.29039 21.7353 8.04616H22.7646C22.7064 8.44158 22.5625 8.79775 22.3328 9.11467C22.106 9.42868 21.8051 9.67872 21.43 9.8648C21.0579 10.048 20.6247 10.1396 20.1304 10.1396ZM25.2985 1.06818V10H24.2692V1.06818H25.2985ZM0.924583 25V24.215L3.87278 20.9877C4.21877 20.6097 4.50371 20.2811 4.72758 20.002C4.95146 19.72 5.11719 19.4554 5.22476 19.2083C5.33525 18.9582 5.39049 18.6966 5.39049 18.4233C5.39049 18.1092 5.3149 17.8374 5.16371 17.6077C5.01542 17.378 4.8119 17.2007 4.55313 17.0756C4.29437 16.9506 4.00362 16.8881 3.68089 16.8881C3.3378 16.8881 3.03833 16.9593 2.78247 17.1018C2.52952 17.2414 2.33326 17.4376 2.1937 17.6906C2.05705 17.9435 1.98873 18.2401 1.98873 18.5803H0.959473C0.959473 18.0569 1.08013 17.5975 1.32146 17.2021C1.56278 16.8067 1.89132 16.4985 2.3071 16.2775C2.72577 16.0566 3.19533 15.9461 3.71578 15.9461C4.23912 15.9461 4.70287 16.0566 5.10701 16.2775C5.51115 16.4985 5.82807 16.7965 6.05776 17.1716C6.28745 17.5466 6.4023 17.9639 6.4023 18.4233C6.4023 18.7518 6.3427 19.0731 6.22349 19.3871C6.10719 19.6982 5.90366 20.0456 5.61291 20.4294C5.32507 20.8103 4.92529 21.2755 4.41357 21.825L2.4074 23.9707V24.0405H6.5593V25H0.924583ZM11.2738 25.1221C10.6167 25.1221 10.057 24.9433 9.59473 24.5857C9.13243 24.2252 8.77917 23.7033 8.53494 23.02C8.29072 22.3338 8.1686 21.5052 8.1686 20.5341C8.1686 19.5688 8.29072 18.7445 8.53494 18.0613C8.78208 17.3751 9.1368 16.8518 9.59909 16.4912C10.0643 16.1278 10.6225 15.9461 11.2738 15.9461C11.9251 15.9461 12.4819 16.1278 12.9442 16.4912C13.4094 16.8518 13.7641 17.3751 14.0083 18.0613C14.2554 18.7445 14.379 19.5688 14.379 20.5341C14.379 21.5052 14.2569 22.3338 14.0127 23.02C13.7684 23.7033 13.4152 24.2252 12.9529 24.5857C12.4906 24.9433 11.9309 25.1221 11.2738 25.1221ZM11.2738 24.1626C11.9251 24.1626 12.431 23.8486 12.7915 23.2206C13.152 22.5926 13.3323 21.6971 13.3323 20.5341C13.3323 19.7607 13.2494 19.1022 13.0837 18.5584C12.9209 18.0147 12.6854 17.6004 12.3772 17.3155C12.0719 17.0306 11.7041 16.8881 11.2738 16.8881C10.6283 16.8881 10.1239 17.2065 9.76045 17.8432C9.39702 18.477 9.2153 19.374 9.2153 20.5341C9.2153 21.3075 9.29671 21.9646 9.45953 22.5054C9.62235 23.0462 9.8564 23.4576 10.1617 23.7396C10.4699 24.0216 10.8406 24.1626 11.2738 24.1626ZM16.0363 25V24.215L18.9845 20.9877C19.3305 20.6097 19.6154 20.2811 19.8393 20.002C20.0632 19.72 20.2289 19.4554 20.3365 19.2083C20.4469 18.9582 20.5022 18.6966 20.5022 18.4233C20.5022 18.1092 20.4266 17.8374 20.2754 17.6077C20.1271 17.378 19.9236 17.2007 19.6648 17.0756C19.4061 16.9506 19.1153 16.8881 18.7926 16.8881C18.4495 16.8881 18.15 16.9593 17.8942 17.1018C17.6412 17.2414 17.445 17.4376 17.3054 17.6906C17.1687 17.9435 17.1004 18.2401 17.1004 18.5803H16.0712C16.0712 18.0569 16.1918 17.5975 16.4331 17.2021C16.6745 16.8067 17.003 16.4985 17.4188 16.2775C17.8375 16.0566 18.307 15.9461 18.8275 15.9461C19.3508 15.9461 19.8146 16.0566 20.2187 16.2775C20.6228 16.4985 20.9398 16.7965 21.1695 17.1716C21.3991 17.5466 21.514 17.9639 21.514 18.4233C21.514 18.7518 21.4544 19.0731 21.3352 19.3871C21.2189 19.6982 21.0154 20.0456 20.7246 20.4294C20.4368 20.8103 20.037 21.2755 19.5253 21.825L17.5191 23.9707V24.0405H21.671V25H16.0363ZM23.071 23.1683V22.2786L26.9961 16.0682H27.6415V17.4463H27.2054L24.2398 22.139V22.2088H29.5256V23.1683H23.071ZM27.2752 25V22.8979V22.4836V16.0682H28.3044V25H27.2752Z" fill="black"/>
</svg>
