<svg width="66" height="23" viewBox="0 0 66 23" fill="none" xmlns="http://www.w3.org/2000/svg">
<rect width="66" height="23" rx="2" fill="#4F4F4F"/>
<path d="M16.6 14.776H26.428V15.604H16.6V14.776ZM20.992 12.448H21.988V15.124H20.992V12.448ZM17.788 6.892H25.216V10.18H18.808V12.352H17.824V9.376H24.232V7.696H17.788V6.892ZM17.824 11.932H25.468V12.748H17.824V11.932ZM28.6951 7.24H35.6791V8.044H28.6951V7.24ZM27.6391 14.524H37.4431V15.352H27.6391V14.524ZM35.1511 7.24H36.1231V8.32C36.1231 9.712 36.1231 11.26 35.7151 13.6L34.7191 13.504C35.1511 11.284 35.1511 9.664 35.1511 8.32V7.24ZM46.5621 6.1H47.5701V14.02H46.5621V6.1ZM40.5981 15.88H47.8941V16.696H40.5981V15.88ZM40.5981 13.204H41.5821V16.156H40.5981V13.204ZM41.7501 6.844C43.3701 6.844 44.5701 7.948 44.5701 9.52C44.5701 11.08 43.3701 12.196 41.7501 12.196C40.1301 12.196 38.9181 11.08 38.9181 9.52C38.9181 7.948 40.1301 6.844 41.7501 6.844ZM41.7501 7.708C40.6941 7.708 39.8901 8.452 39.8901 9.52C39.8901 10.576 40.6941 11.32 41.7501 11.32C42.8061 11.32 43.6101 10.576 43.6101 9.52C43.6101 8.452 42.8061 7.708 41.7501 7.708Z" fill="white"/>
</svg>
